<?xml version="1.0" encoding="UTF-8" standalone="no"?>
<svg
   id="Layer_1"
   data-name="Layer 1"
   viewBox="0 0 16 13.97"
   version="1.1"
   sodipodi:docname="icons-mini-big-ocr-pdf.svg"
   inkscape:version="1.2.2 (b0a8486541, 2022-12-01)"
   xmlns:inkscape="http://www.inkscape.org/namespaces/inkscape"
   xmlns:sodipodi="http://sodipodi.sourceforge.net/DTD/sodipodi-0.dtd"
   xmlns="http://www.w3.org/2000/svg"
   xmlns:svg="http://www.w3.org/2000/svg">
  <sodipodi:namedview
     id="namedview203"
     pagecolor="#ffffff"
     bordercolor="#000000"
     borderopacity="0.25"
     inkscape:showpageshadow="2"
     inkscape:pageopacity="0.0"
     inkscape:pagecheckerboard="0"
     inkscape:deskcolor="#d1d1d1"
     showgrid="false"
     inkscape:zoom="11.059616"
     inkscape:cx="-27.532603"
     inkscape:cy="14.693097"
     inkscape:window-width="2560"
     inkscape:window-height="1000"
     inkscape:window-x="1680"
     inkscape:window-y="0"
     inkscape:window-maximized="1"
     inkscape:current-layer="Layer_1" />
  <defs
     id="defs184">
    <style
       id="style182">.cls-1{fill:none;stroke:#3380cc;stroke-miterlimit:10;}.cls-2{fill:#f13c3d;}.cls-3{font-size:4.06px;fill:#fff;font-family:Lato-Bold, Lato;font-weight:700;}.cls-4{letter-spacing:-0.02em;}.cls-5{fill:#3e3373;}.cls-6{fill:#3380cc;}</style>
    <radialGradient
       fx="0"
       fy="0"
       cx="0"
       cy="0"
       r="1"
       gradientUnits="userSpaceOnUse"
       gradientTransform="matrix(0,16.500022,-16.500022,0,9,0.75)"
       spreadMethod="pad"
       id="radialGradient4659">
      <stop
         style="stop-opacity:1;stop-color:#8db9ff"
         offset="0"
         id="stop4655" />
      <stop
         style="stop-opacity:1;stop-color:#3e3373"
         offset="1"
         id="stop4657" />
    </radialGradient>
  </defs>
  <g
     id="g5713"
     transform="matrix(1.1902833,0,0,1.1902833,-1.9011201,-1.086797)">
    <path
       d="M 12.149915,9.8520499 C 12.785248,9.0572952 13.177912,8.0638528 13.223461,6.9934478 13.232885,6.747639 13.042836,6.5387414 12.793886,6.5269615 12.548863,6.5175375 12.339965,6.7075875 12.330541,6.9565371 12.254364,8.7078234 11.054379,10.207804 9.3580659,10.661725 7.6617525,11.116431 5.8735554,10.419844 4.9319448,8.9379254 4.8000093,8.7290273 4.5235726,8.6677716 4.3146752,8.7997071 4.1065623,8.9316426 4.0453065,9.2080786 4.177242,9.4161915 c 1.1497235,1.8101865 3.343151,2.6630545 5.414067,2.1109675 1.03428,-0.278792 1.920133,-0.877214 2.558606,-1.6751091 z"
       style="fill:#3380cc;fill-opacity:1;fill-rule:nonzero;stroke:none;stroke-width:0.785328"
       id="path4663" />
    <path
       d="m 12.7664,6.0235649 c 0.113872,0 0.230101,0.043193 0.315702,0.1287941 0.175129,0.1751286 0.175129,0.4570622 0,0.6321907 L 11.64966,8.2201333 c -0.174343,0.1751291 -0.457062,0.1751291 -0.631406,0 -0.175129,-0.1751284 -0.175129,-0.4570622 0,-0.6321907 L 12.450697,6.152359 C 12.539439,6.066758 12.653312,6.0235649 12.7664,6.0235649 Z"
       style="fill:#3380cc;fill-opacity:1;fill-rule:nonzero;stroke:none;stroke-width:0.785328"
       id="path4665" />
    <path
       d="m 12.318761,6.4688471 c 0,-0.1138729 0.04555,-0.2277458 0.131936,-0.3133468 0.174343,-0.1751287 0.457062,-0.1751287 0.631405,0 l 1.433228,1.4324423 c 0.174343,0.1751285 0.174343,0.4570623 0,0.6321907 -0.175129,0.1751291 -0.457062,0.1751291 -0.632191,0 L 12.450697,6.7845497 C 12.36431,6.6989488 12.318761,6.5850759 12.318761,6.4688471 Z"
       style="fill:#3380cc;fill-opacity:1;fill-rule:nonzero;stroke:none;stroke-width:0.785328"
       id="path4667" />
    <path
       d="M 4.4866625,3.7107674 C 3.8513301,4.5055215 3.4586648,5.4989643 3.4131158,6.5693693 3.4036918,6.8151776 3.593742,7.0240757 3.8426913,7.0358556 4.0877143,7.0452796 4.2966124,6.8552295 4.3060364,6.6062799 4.3822132,4.8549935 5.5821977,3.3550127 7.2785111,2.9010919 8.9748246,2.4463857 10.763022,3.1429736 11.704633,4.6248917 11.836568,4.8337896 12.113004,4.8950453 12.321902,4.7631099 12.530015,4.6311744 12.591271,4.3547381 12.459335,4.1466256 11.309612,2.3364395 9.116184,1.4835708 7.045268,2.035658 6.010988,2.3144503 5.125136,2.9128719 4.4866625,3.7107674 Z"
       style="fill:#3380cc;fill-opacity:1;fill-rule:nonzero;stroke:none;stroke-width:0.785328"
       id="path4669" />
    <path
       d="m 3.870178,7.5392519 c -0.1138727,0 -0.2301019,-0.043191 -0.3157027,-0.1287937 -0.1751285,-0.1751291 -0.1751285,-0.4570623 0,-0.6321913 L 4.9869177,5.3426835 c 0.1743433,-0.1751286 0.4570622,-0.1751286 0.6314056,0 0.1751284,0.1751287 0.1751284,0.4570622 0,0.6321909 L 4.1858808,7.4104582 C 4.0971383,7.496059 3.9832656,7.5392519 3.870178,7.5392519 Z"
       style="fill:#3380cc;fill-opacity:1;fill-rule:nonzero;stroke:none;stroke-width:0.785328"
       id="path4671" />
    <path
       d="m 4.3178163,7.0939697 c 0,0.1138733 -0.045547,0.227746 -0.1319355,0.3133468 -0.1743433,0.177485 -0.4570622,0.177485 -0.6314055,0 L 2.1212477,5.9748744 c -0.1743434,-0.1751287 -0.1743434,-0.4570622 0,-0.6321909 0.1751284,-0.1751286 0.4570622,-0.1751286 0.6321907,0 l 1.4324424,1.4355834 c 0.086387,0.085601 0.1319355,0.1994741 0.1319355,0.3157028 z"
       style="fill:#3380cc;fill-opacity:1;fill-rule:nonzero;stroke:none;stroke-width:0.785328"
       id="path4673" />
    <path
       d="M 7.9287646,2.4801549 V 3.7845884 H 8.266457 c 0.024343,0 0.045547,0 0.067538,-0.00314 0.021204,0 0.042408,-0.00314 0.061256,-0.00628 0.021204,-0.00314 0.039269,-0.00942 0.061256,-0.015707 0.018064,-0.0055 0.033767,-0.01178 0.051832,-0.018063 0.018848,-0.00942 0.036912,-0.015707 0.052615,-0.024345 0.018065,-0.00942 0.033767,-0.021989 0.048692,-0.030628 0.015709,-0.012565 0.027489,-0.021989 0.043191,-0.033769 0.01178,-0.012565 0.027488,-0.028272 0.040052,-0.040052 0.01178,-0.015707 0.024343,-0.030628 0.033767,-0.046335 0.01178,-0.014921 0.021204,-0.030628 0.030628,-0.048691 0.00864,-0.015707 0.018065,-0.033769 0.027489,-0.052617 0.00864,-0.018063 0.014919,-0.039267 0.021204,-0.058115 0.00628,-0.021204 0.012563,-0.040052 0.018848,-0.064397 0.00236,-0.021204 0.00864,-0.043193 0.01178,-0.064397 0.00312,-0.024345 0.00312,-0.046335 0.00628,-0.07068 0.00312,-0.024345 0.00312,-0.048691 0.00312,-0.076177 0,-0.025131 0,-0.049476 -0.00312,-0.073821 C 8.839765,3.0353854 8.839765,3.0110394 8.836605,2.9898364 8.833485,2.9654914 8.827185,2.9435014 8.824825,2.9222984 8.818545,2.9010944 8.812262,2.8791054 8.805977,2.8610424 8.799697,2.8390534 8.793414,2.8209904 8.784773,2.8029274 8.775353,2.7840794 8.765925,2.7660164 8.757284,2.7471684 8.747864,2.7322474 8.738436,2.7165404 8.726656,2.6984774 8.717236,2.6827704 8.704669,2.6678494 8.692889,2.6552844 8.680326,2.6403634 8.664617,2.6277974 8.652837,2.6152324 8.637128,2.6034524 8.625348,2.5908874 8.609646,2.5814634 8.594727,2.5696834 8.579018,2.5602594 8.560954,2.5508354 8.545245,2.5421954 8.527187,2.5327724 8.508339,2.5264904 8.490274,2.5170704 8.474572,2.5107834 8.456507,2.5052864 8.43452,2.5021464 8.416455,2.4958664 8.395251,2.4927214 8.376403,2.4895814 8.355199,2.4864414 8.333995,2.4833014 8.312008,2.4801614 8.290804,2.4801614 8.266457,2.4801614 Z"
       style="fill:#f13c3d;fill-opacity:1;fill-rule:nonzero;stroke:none;stroke-width:0.785328"
       id="path4675" />
    <path
       d="m 6.2567968,2.4715163 v 0.6565361 h 0.254447 c 0.030628,0 0.061256,0 0.086386,-0.00314 0.027488,-0.00628 0.051832,-0.012565 0.076177,-0.018848 0.021987,-0.00864 0.043191,-0.018063 0.061256,-0.027487 0.018848,-0.01178 0.033767,-0.024345 0.049476,-0.040052 0.014919,-0.014921 0.027488,-0.033769 0.036912,-0.048691 0.01178,-0.018848 0.021204,-0.036911 0.027489,-0.058115 0.00942,-0.021989 0.014919,-0.043193 0.018064,-0.064397 0.00312,-0.025131 0.00628,-0.049476 0.00628,-0.076962 0,-0.024345 -0.00312,-0.046335 -0.00628,-0.067538 -0.00312,-0.021204 -0.00864,-0.043193 -0.018064,-0.061256 -0.00628,-0.021204 -0.015709,-0.040052 -0.024343,-0.054973 -0.012563,-0.018848 -0.025132,-0.033769 -0.040052,-0.046335 -0.015709,-0.015707 -0.033767,-0.027487 -0.052615,-0.040052 -0.018065,-0.00942 -0.036123,-0.018063 -0.061256,-0.027487 -0.021204,-0.00628 -0.045547,-0.012565 -0.073036,-0.014921 -0.028272,-0.00314 -0.05576,-0.00628 -0.086386,-0.00628 z"
       style="fill:#f13c3d;fill-opacity:1;fill-rule:nonzero;stroke:none;stroke-width:0.785328"
       id="path4677" />
    <path
       d="M 9.5481161,2.1675934 V 4.0971498 H 9.9502048 V 3.3275262 H 10.643652 V 3.0141794 H 9.9502048 V 2.4801549 H 10.775587 V 2.1675934 Z"
       style="fill:#ffffff;fill-opacity:1;fill-rule:nonzero;stroke:none;stroke-width:0.785328"
       id="path4679" />
    <path
       d="M 7.5266759,2.1675934 V 4.0971498 H 8.266457 c 0.039268,0 0.073036,0 0.1099459,-0.00314 0.033767,-0.00314 0.07068,-0.00942 0.1044493,-0.014921 0.030628,-0.00628 0.064397,-0.012565 0.098166,-0.021989 0.030628,-0.00864 0.061256,-0.021204 0.091884,-0.030628 0.030628,-0.01178 0.061256,-0.027487 0.088743,-0.040052 0.028272,-0.014921 0.05576,-0.030628 0.080104,-0.045549 0.027489,-0.018848 0.051832,-0.036911 0.076963,-0.055759 0.021204,-0.018063 0.045547,-0.036125 0.067538,-0.058115 0.021204,-0.021204 0.039269,-0.045549 0.061256,-0.067538 0.018065,-0.024345 0.036913,-0.048691 0.051832,-0.073036 0.018848,-0.025131 0.033767,-0.052617 0.046336,-0.080104 0.014919,-0.027487 0.027489,-0.054973 0.040052,-0.085601 0.01178,-0.028272 0.021204,-0.0589 0.030628,-0.089528 0.00864,-0.033769 0.018064,-0.064397 0.024343,-0.095025 0.00628,-0.033769 0.00942,-0.067538 0.012563,-0.1013076 0.00236,-0.033769 0.00236,-0.067538 0.00236,-0.1013076 0,-0.036125 0,-0.069894 -0.00236,-0.1036636 C 9.2481402,2.996117 9.2449802,2.962348 9.2386972,2.93172 9.2324109,2.8979529 9.222987,2.8673248 9.2143523,2.8366969 9.2049283,2.806069 9.1955043,2.7746558 9.1837244,2.7471693 9.1711611,2.7165414 9.1585918,2.6890547 9.1436725,2.6615683 9.1311092,2.6340815 9.116184,2.6065954 9.0973361,2.5814646 9.0824168,2.5571196 9.0635688,2.5296328 9.0455043,2.5084289 9.023517,2.4832982 9.0054524,2.4620943 8.9842485,2.4408905 8.9622612,2.4189015 8.9379121,2.3976975 8.9167105,2.3796347 8.891578,2.3607868 8.8672347,2.342724 8.8397479,2.3270178 8.8154047,2.3120967 8.7879161,2.2932488 8.7596442,2.2814689 8.7321557,2.2657621 8.7015278,2.253197 8.6709017,2.241417 8.6402738,2.2288519 8.609646,2.217072 8.5790181,2.207648 8.5452508,2.198224 8.5114801,2.1919412 8.4808522,2.185659 8.4470852,2.180159 8.4101722,2.177019 8.3764029,2.173879 8.3394909,2.170739 8.3057229,2.167599 8.266457,2.167599 Z M 7.9287646,2.4801549 H 8.266457 c 0.024343,0 0.045547,0 0.067538,0.00314 0.021204,0.00314 0.042408,0.00628 0.061256,0.00942 0.021204,0.00314 0.039269,0.00942 0.061256,0.015707 0.018064,0.00236 0.033767,0.00864 0.051832,0.018063 0.018848,0.00628 0.036912,0.015707 0.052615,0.024345 0.018065,0.00942 0.033767,0.018848 0.048692,0.030628 0.015709,0.00942 0.027489,0.021989 0.043191,0.033769 0.01178,0.012565 0.027488,0.025131 0.040052,0.040052 0.01178,0.012565 0.024343,0.027487 0.033767,0.046335 0.01178,0.014921 0.021204,0.030628 0.030628,0.045549 0.00864,0.018848 0.018065,0.036911 0.027489,0.055759 0.00864,0.018063 0.014919,0.036125 0.021204,0.058115 0.00628,0.018063 0.012563,0.040052 0.018848,0.061256 0.00236,0.021204 0.00864,0.043193 0.01178,0.067538 0.00312,0.021204 0.00312,0.045549 0.00628,0.07068 0.00312,0.021204 0.00312,0.045549 0.00312,0.073036 0,0.025131 0,0.049476 -0.00312,0.073821 -0.00312,0.024345 -0.00312,0.046335 -0.00628,0.07068 -0.00312,0.021204 -0.00942,0.043193 -0.01178,0.067538 -0.00628,0.021204 -0.012563,0.040052 -0.018848,0.061256 -0.00628,0.018848 -0.012563,0.040052 -0.021204,0.058115 -0.00942,0.018848 -0.018848,0.036911 -0.027489,0.052617 -0.00942,0.018063 -0.018848,0.033769 -0.030628,0.048691 -0.00942,0.015707 -0.021987,0.030628 -0.033767,0.046335 -0.012563,0.01178 -0.028272,0.027487 -0.040052,0.040052 -0.015709,0.01178 -0.027489,0.021204 -0.043191,0.033769 -0.014919,0.00864 -0.030628,0.021204 -0.048692,0.030628 -0.015709,0.00864 -0.033767,0.014921 -0.052615,0.024345 -0.018065,0.00628 -0.033767,0.012565 -0.051832,0.018063 -0.021987,0.00628 -0.040052,0.012565 -0.061256,0.015707 -0.018848,0.00314 -0.040052,0.00628 -0.061256,0.00628 -0.021987,0.00314 -0.043191,0.00314 -0.067538,0.00314 H 7.9287646 Z"
       style="fill:#ffffff;fill-opacity:1;fill-rule:nonzero;stroke:none;stroke-width:0.785328"
       id="path4681" />
    <path
       d="M 5.8609903,2.1675934 V 4.0971498 H 6.2567968 V 3.4343311 h 0.254447 c 0.030628,0 0.061256,0 0.091884,-0.00314 0.030628,-0.00314 0.062041,-0.0055 0.089528,-0.00864 0.027489,-0.00314 0.054971,-0.00942 0.079318,-0.015707 0.024343,-0.00628 0.052615,-0.01178 0.073821,-0.018063 0.024343,-0.00942 0.049476,-0.018848 0.07068,-0.027487 0.021204,-0.00942 0.043191,-0.018848 0.061256,-0.031413 0.021204,-0.01178 0.040052,-0.024345 0.054971,-0.036125 0.018848,-0.012565 0.036912,-0.025131 0.052615,-0.040052 0.014919,-0.012565 0.030628,-0.027487 0.042408,-0.043193 0.015708,-0.014921 0.028272,-0.033769 0.040052,-0.048691 0.012563,-0.018848 0.021204,-0.033769 0.033767,-0.052617 0.00942,-0.018063 0.015708,-0.040052 0.024343,-0.058115 0.00628,-0.021204 0.015709,-0.040052 0.021987,-0.061256 0.00312,-0.018848 0.00864,-0.043193 0.01178,-0.064397 0.00628,-0.021989 0.00628,-0.043193 0.00942,-0.064397 0.00312,-0.021989 0.00312,-0.046335 0.00312,-0.07068 0,-0.021204 0,-0.043193 -0.00312,-0.064397 -0.00312,-0.021204 -0.00312,-0.043193 -0.00942,-0.064397 -0.00312,-0.021204 -0.00548,-0.040052 -0.01178,-0.061256 -0.00628,-0.018848 -0.012563,-0.040052 -0.018848,-0.058115 -0.00864,-0.018848 -0.018065,-0.036911 -0.027488,-0.055759 C 7.1921134,2.4683759 7.1834728,2.4526696 7.1709095,2.437748 7.1583462,2.4189 7.1465662,2.403979 7.133997,2.3882722 7.1190777,2.3733511 7.1065085,2.3576443 7.0915892,2.3458643 7.0758806,2.3301575 7.0578219,2.3175924 7.038974,2.3058125 7.0240547,2.2932474 7.0020615,2.2814674 6.9840028,2.2720435 6.9651549,2.2594784 6.943951,2.2500544 6.9227471,2.2414156 c -0.021987,-0.00942 -0.046336,-0.018848 -0.07068,-0.024345 -0.024343,-0.00942 -0.049476,-0.015707 -0.073821,-0.021989 -0.027488,-0.00628 -0.054971,-0.01178 -0.08246,-0.014921 -0.028272,-0.00314 -0.0589,-0.00628 -0.089528,-0.00942 -0.030628,0 -0.061256,-0.00314 -0.095025,-0.00314 z m 0.3958065,0.3039229 h 0.254447 c 0.030628,0 0.058116,0.00314 0.086386,0.00628 0.027488,0.00236 0.051832,0.00864 0.073036,0.014921 0.025132,0.00942 0.043191,0.018063 0.061256,0.027487 0.018848,0.012565 0.036912,0.024345 0.052615,0.040052 0.014919,0.012565 0.027488,0.027487 0.036912,0.046335 0.01178,0.014921 0.021204,0.033769 0.027488,0.054973 0.00942,0.018063 0.014919,0.040052 0.018065,0.061256 0.00312,0.021204 0.00628,0.043193 0.00628,0.067538 0,0.027487 -0.00312,0.051832 -0.00628,0.076962 -0.00312,0.021204 -0.00864,0.042408 -0.018065,0.064397 -0.00628,0.021204 -0.015709,0.039267 -0.027488,0.058115 -0.00942,0.014921 -0.021987,0.033769 -0.036912,0.048691 -0.015709,0.015707 -0.030628,0.028272 -0.049476,0.040052 -0.018065,0.00942 -0.039268,0.018848 -0.061256,0.027487 -0.024343,0.00628 -0.048692,0.012565 -0.076177,0.018848 -0.025133,0.00314 -0.05576,0.00314 -0.086386,0.00314 H 6.2567944 Z"
       style="fill:#ffffff;fill-opacity:1;fill-rule:nonzero;stroke:none;stroke-width:0.785328"
       id="path4683" />
    <path
       d="m 6.9565261,0.93148372 c -1.2180473,0 -2.1997104,0.98166278 -2.1997104,2.20206588 0,1.2180472 0.9816631,2.19971 2.1997104,2.19971 h 2.7235254 c 1.2180475,0 2.1997095,-0.9816628 2.1997095,-2.19971 0,-1.2204031 -0.981662,-2.20206588 -2.1997095,-2.20206588 z M 5.8609903,2.1675934 h 0.6502535 c 0.033767,0 0.064397,0.00314 0.095025,0.00314 0.030628,0.00314 0.061256,0.00628 0.089528,0.00942 0.027489,0.00314 0.054971,0.00864 0.08246,0.014921 0.024343,0.00628 0.049476,0.012565 0.073821,0.021989 0.024343,0.0055 0.048692,0.014921 0.07068,0.024345 0.021204,0.00864 0.042408,0.018063 0.061256,0.030628 0.018065,0.00942 0.040052,0.021204 0.054971,0.033769 0.018848,0.01178 0.036912,0.024345 0.052615,0.040052 0.014919,0.01178 0.027488,0.027487 0.042408,0.042408 0.012563,0.015707 0.024343,0.030628 0.036913,0.049476 0.012563,0.014921 0.021204,0.030628 0.030628,0.048691 0.00942,0.018848 0.018848,0.036911 0.027488,0.055759 0.00628,0.018063 0.012563,0.039267 0.018848,0.058115 0.00628,0.021204 0.00864,0.040052 0.01178,0.061256 0.00628,0.021204 0.00628,0.043193 0.00942,0.064397 0.00312,0.021204 0.00312,0.043193 0.00312,0.064397 0,0.024345 0,0.048691 -0.00312,0.07068 -0.00312,0.021204 -0.00312,0.042408 -0.00942,0.064397 -0.00312,0.021204 -0.00864,0.045549 -0.01178,0.064397 -0.00628,0.021204 -0.015709,0.040052 -0.021987,0.061256 -0.00864,0.018063 -0.014919,0.040052 -0.024343,0.058115 -0.012563,0.018848 -0.021204,0.033769 -0.033767,0.052617 -0.01178,0.014921 -0.024343,0.033769 -0.040052,0.048691 -0.01178,0.015707 -0.027488,0.030628 -0.042408,0.043193 -0.015709,0.014921 -0.033767,0.027487 -0.052615,0.040052 -0.014919,0.01178 -0.033767,0.024345 -0.054971,0.036125 -0.018064,0.012565 -0.040052,0.021989 -0.061256,0.031413 -0.021204,0.00864 -0.046336,0.018063 -0.07068,0.027487 -0.021204,0.00628 -0.049476,0.01178 -0.073821,0.018063 -0.024343,0.00628 -0.051832,0.012565 -0.079318,0.015707 -0.027489,0.00314 -0.0589,0.0055 -0.089528,0.00864 -0.030628,0.00314 -0.061256,0.00314 -0.091884,0.00314 H 6.2568062 V 4.0971462 H 5.8609998 Z m 1.6656856,0 H 8.266457 c 0.039268,0 0.073036,0.00314 0.1099459,0.00628 0.033767,0.00314 0.07068,0.00628 0.1044493,0.01178 0.030628,0.00628 0.064397,0.012565 0.098166,0.021989 0.030628,0.00942 0.061256,0.021204 0.091884,0.033769 0.030628,0.01178 0.061256,0.024345 0.088743,0.040052 0.028272,0.01178 0.05576,0.030628 0.080104,0.045549 0.027489,0.015707 0.051832,0.033769 0.076963,0.052617 0.021204,0.018063 0.045547,0.039267 0.067538,0.061256 0.021204,0.021204 0.039269,0.042408 0.061256,0.067538 0.018065,0.021204 0.036913,0.048691 0.051832,0.073036 0.018848,0.025131 0.033767,0.052617 0.046336,0.080104 0.014919,0.027487 0.027489,0.054973 0.040052,0.08246 0.01178,0.030628 0.021204,0.062041 0.030628,0.092669 0.00864,0.030628 0.018064,0.061256 0.024343,0.095025 0.00628,0.030628 0.00942,0.064397 0.012563,0.098166 0.00236,0.033769 0.00236,0.067538 0.00236,0.1013076 0,0.036125 0,0.069894 -0.00236,0.1036636 -0.00312,0.033769 -0.00628,0.067538 -0.012563,0.098166 -0.00628,0.033769 -0.015709,0.064397 -0.024343,0.098166 -0.00942,0.030628 -0.018848,0.061256 -0.030628,0.089528 -0.012563,0.030628 -0.025133,0.058115 -0.040052,0.085601 -0.012563,0.027487 -0.027488,0.054973 -0.046336,0.080104 -0.014919,0.024345 -0.033767,0.048691 -0.051832,0.073036 -0.021987,0.021989 -0.040052,0.046335 -0.061256,0.067538 -0.021987,0.021989 -0.046336,0.040052 -0.067538,0.058115 -0.025132,0.018848 -0.049476,0.036911 -0.076963,0.055759 -0.024343,0.014921 -0.051832,0.030628 -0.080104,0.045549 -0.027489,0.012565 -0.058116,0.028272 -0.088743,0.036911 -0.030628,0.012565 -0.061256,0.025131 -0.091884,0.033769 -0.033767,0.00942 -0.067538,0.015707 -0.098166,0.021989 -0.033767,0.0055 -0.07068,0.01178 -0.1044493,0.014921 -0.036912,0.00314 -0.07068,0.00314 -0.1099459,0.00314 H 7.5266759 Z m 2.0214402,0 H 10.775587 V 2.4801549 H 9.9502048 V 3.0141794 H 10.643652 V 3.3275262 H 9.9502048 V 4.0971498 H 9.5481161 Z"
       style="fill:#f13c3d;fill-opacity:1;fill-rule:nonzero;stroke:none;stroke-width:0.785328"
       id="path4685" />
    <path
       d="m 6.5300917,9.7782284 c -0.025132,0 -0.046336,0 -0.067539,0.00312 -0.021987,0.00312 -0.043191,0.00628 -0.061256,0.00942 -0.021987,0.00312 -0.040052,0.00942 -0.062041,0.015709 -0.018065,0.00236 -0.036123,0.00864 -0.054971,0.018065 -0.014919,0.00628 -0.033767,0.015709 -0.051832,0.024343 -0.015708,0.00942 -0.030628,0.018848 -0.046336,0.030628 -0.014919,0.00942 -0.030628,0.021987 -0.043191,0.033767 -0.014919,0.012563 -0.030628,0.025132 -0.042408,0.040052 -0.012563,0.012563 -0.021987,0.027489 -0.033767,0.046336 -0.00942,0.014919 -0.021987,0.030628 -0.030628,0.045547 -0.00942,0.01885 -0.018848,0.03691 -0.027488,0.05576 -0.00628,0.01807 -0.015709,0.03612 -0.021987,0.05812 -0.00628,0.01806 -0.01178,0.04005 -0.014919,0.06126 -0.00628,0.0212 -0.00942,0.04319 -0.012563,0.0644 -0.00628,0.02434 -0.00942,0.04634 -0.00942,0.07068 -0.00312,0.02434 -0.00312,0.04869 -0.00312,0.07382 0,0.02434 0,0.05183 0.00312,0.07618 0,0.02199 0.00312,0.04634 0.00942,0.06754 0.00312,0.02434 0.00628,0.04634 0.012563,0.06754 0.00312,0.0212 0.00864,0.04319 0.014919,0.06126 0.00628,0.02199 0.015709,0.04005 0.021987,0.05812 0.00864,0.01885 0.018065,0.03691 0.027488,0.05262 0.00864,0.01806 0.021204,0.03377 0.030628,0.04869 0.01178,0.01571 0.021204,0.03063 0.033767,0.04634 0.01178,0.01256 0.027489,0.02434 0.042408,0.04005 0.012563,0.01178 0.028272,0.0212 0.043191,0.03377 0.015709,0.0086 0.030628,0.0212 0.046336,0.03063 0.018065,0.0063 0.036912,0.01492 0.051832,0.02434 0.018848,0.0063 0.036913,0.01256 0.054971,0.01806 0.021987,0.0063 0.040052,0.0094 0.062041,0.01256 0.018065,0.0031 0.039269,0.0063 0.061256,0.0094 0.021204,0 0.042408,0.0031 0.067539,0.0031 0.021204,0 0.042408,-0.0031 0.064397,-0.0031 0.021204,-0.0031 0.042408,-0.0063 0.061256,-0.0094 0.021204,-0.0031 0.040052,-0.0063 0.058116,-0.01256 0.018065,-0.0055 0.036912,-0.01178 0.054971,-0.01806 0.018848,-0.0094 0.036912,-0.01807 0.052615,-0.02434 0.018065,-0.0094 0.033767,-0.02199 0.048692,-0.03063 0.015708,-0.01256 0.027489,-0.02199 0.043191,-0.03377 0.012563,-0.01571 0.024343,-0.02749 0.036913,-0.04005 0.014919,-0.01571 0.024343,-0.03063 0.036912,-0.04634 0.01178,-0.01492 0.021204,-0.03063 0.030628,-0.04869 0.00864,-0.01571 0.021204,-0.03377 0.027489,-0.05262 0.00942,-0.01806 0.014919,-0.03612 0.021204,-0.05812 0.00942,-0.01807 0.012563,-0.04005 0.018848,-0.06126 0.00628,-0.0212 0.00864,-0.04319 0.01178,-0.06754 0.00312,-0.0212 0.00628,-0.04555 0.00628,-0.06754 0.00312,-0.02434 0.00312,-0.05183 0.00312,-0.07618 0,-0.02513 0,-0.04948 -0.00312,-0.07382 0,-0.02434 -0.00312,-0.04634 -0.00628,-0.07068 -0.00312,-0.0212 -0.00548,-0.04319 -0.01178,-0.0644 -0.00628,-0.0212 -0.00942,-0.04319 -0.018848,-0.06126 -0.00628,-0.02199 -0.01178,-0.04005 -0.021204,-0.05812 -0.00628,-0.01885 -0.018848,-0.03691 -0.027489,-0.05576 -0.00942,-0.01492 -0.018848,-0.03063 -0.030628,-0.045547 -0.012563,-0.018848 -0.021987,-0.033767 -0.036912,-0.046336 -0.012563,-0.014919 -0.024343,-0.027489 -0.036913,-0.040052 -0.015709,-0.01178 -0.027489,-0.024343 -0.043191,-0.033767 -0.014919,-0.01178 -0.030628,-0.021204 -0.048692,-0.030628 -0.015709,-0.00864 -0.033767,-0.018065 -0.052615,-0.024343 -0.018065,-0.00942 -0.036912,-0.015709 -0.054971,-0.018065 -0.018065,-0.00628 -0.036912,-0.012563 -0.058116,-0.015709 -0.018848,-0.00312 -0.040052,-0.00628 -0.061256,-0.00942 -0.021987,-0.00312 -0.043191,-0.00312 -0.064397,-0.00312 z"
       style="fill:#3e3373;fill-opacity:1;fill-rule:nonzero;stroke:none;stroke-width:0.785328"
       id="path4687" />
    <path
       d="m 9.9596287,9.7695902 v 0.6102018 h 0.2026153 c 0.03377,0 0.0644,-0.0031 0.09188,-0.0063 0.02749,-0.0063 0.05183,-0.01178 0.07618,-0.01806 0.02513,-0.0094 0.04634,-0.01885 0.06518,-0.03063 0.01807,-0.0094 0.03612,-0.02513 0.05183,-0.03691 0.01492,-0.01571 0.02749,-0.03063 0.04005,-0.04948 0.0086,-0.01492 0.01806,-0.03377 0.02434,-0.05497 0.0063,-0.01806 0.01256,-0.04005 0.01492,-0.06126 0.0063,-0.0212 0.0063,-0.04319 0.0063,-0.0644 0,-0.02434 0,-0.04634 -0.0063,-0.064397 -0.0024,-0.021987 -0.0086,-0.040052 -0.01492,-0.058116 -0.0094,-0.018848 -0.01807,-0.033767 -0.03063,-0.049476 -0.0094,-0.014919 -0.02434,-0.027489 -0.04005,-0.040052 -0.01492,-0.01178 -0.03063,-0.024343 -0.04869,-0.033767 -0.01885,-0.00864 -0.04005,-0.018065 -0.0644,-0.024343 -0.02199,-0.00628 -0.04948,-0.012563 -0.07696,-0.014919 -0.02434,-0.00312 -0.05497,-0.00312 -0.0856,-0.00312 z"
       style="fill:#3e3373;fill-opacity:1;fill-rule:nonzero;stroke:none;stroke-width:0.785328"
       id="path4689" />
    <path
       d="m 9.5606811,9.4656674 v 1.9295556 h 0.3989476 v -0.735854 h 0.1350773 c 0.01492,0 0.03377,0 0.04555,0.0024 0.01256,0.0031 0.02513,0.0094 0.03377,0.01256 0.0094,0.0063 0.01885,0.01256 0.02513,0.0212 0.0086,0.0094 0.01806,0.01885 0.02434,0.03063 l 0.36832,0.59214 c 0.0055,0.01256 0.01492,0.02199 0.02434,0.03377 0.0094,0.0094 0.0212,0.01571 0.03377,0.02199 0.01178,0.0055 0.02749,0.01178 0.04005,0.01492 0.01492,0.0031 0.03063,0.0063 0.04869,0.0063 h 0.358896 l -0.450779,-0.693446 c -0.0094,-0.01492 -0.01571,-0.02749 -0.02749,-0.04005 -0.0094,-0.01178 -0.02199,-0.0212 -0.03063,-0.03377 -0.01256,-0.0086 -0.02199,-0.01806 -0.03377,-0.02749 -0.01256,-0.0063 -0.02513,-0.01492 -0.03691,-0.0212 0.03063,-0.01256 0.06126,-0.02434 0.08874,-0.04005 0.03063,-0.01492 0.05812,-0.03063 0.08324,-0.04869 0.02434,-0.01885 0.04869,-0.03691 0.06989,-0.0589 0.02199,-0.0212 0.04005,-0.04241 0.0589,-0.06754 0.01492,-0.02434 0.03063,-0.04555 0.04241,-0.07304 0.01256,-0.02434 0.02513,-0.05262 0.03377,-0.0801 0.0094,-0.03063 0.01571,-0.05812 0.02199,-0.08874 0.0024,-0.03063 0.0055,-0.06125 0.0055,-0.09502 0,-0.01885 0,-0.040052 -0.0031,-0.061256 0,-0.018848 -0.0024,-0.036912 -0.0055,-0.05576 -0.0063,-0.018065 -0.0094,-0.039269 -0.01571,-0.054971 -0.0063,-0.018064 -0.01178,-0.036912 -0.01806,-0.051832 -0.0063,-0.018848 -0.01571,-0.033767 -0.02513,-0.052615 -0.0086,-0.014919 -0.01806,-0.030628 -0.02749,-0.045547 -0.01178,-0.015709 -0.02434,-0.027489 -0.03691,-0.043191 -0.01492,-0.012563 -0.02749,-0.024343 -0.04241,-0.036912 -0.01571,-0.012563 -0.03377,-0.024343 -0.04947,-0.036913 -0.01807,-0.01178 -0.03691,-0.021204 -0.05497,-0.030628 -0.0212,-0.00942 -0.04319,-0.018065 -0.0644,-0.027489 -0.0212,-0.00628 -0.04319,-0.015709 -0.06754,-0.021204 -0.02434,-0.00942 -0.04948,-0.015709 -0.07696,-0.018848 -0.02434,-0.00628 -0.05183,-0.00864 -0.08246,-0.01178 -0.02749,-0.00628 -0.05812,-0.00628 -0.08874,-0.00942 -0.03063,-0.00312 -0.0644,-0.00312 -0.09817,-0.00312 z m 0.3989476,0.3039228 h 0.2057573 c 0.03063,0 0.06126,0 0.0856,0.00312 0.02749,0.00236 0.05497,0.00864 0.07696,0.014919 0.02434,0.00628 0.04555,0.015709 0.0644,0.024343 0.01806,0.00942 0.03377,0.021987 0.04869,0.033767 0.01571,0.012563 0.03063,0.025132 0.04005,0.040052 0.01256,0.015709 0.0212,0.030628 0.03063,0.049476 0.0063,0.018065 0.01256,0.036123 0.01492,0.058117 0.0063,0.018064 0.0063,0.040052 0.0063,0.064397 0,0.0212 0,0.04319 -0.0063,0.0644 -0.0024,0.0212 -0.0086,0.04319 -0.01492,0.06125 -0.0063,0.0212 -0.01571,0.04005 -0.02434,0.05497 -0.01256,0.01885 -0.02513,0.03377 -0.04005,0.04948 -0.01571,0.01178 -0.03377,0.02749 -0.05183,0.03691 -0.01885,0.01178 -0.04005,0.0212 -0.06518,0.03063 -0.02434,0.0063 -0.04869,0.01178 -0.07618,0.01806 -0.02749,0.0031 -0.05812,0.0063 -0.09188,0.0063 H 9.9596329 Z"
       style="fill:#ffffff;fill-opacity:1;fill-rule:nonzero;stroke:none;stroke-width:0.785328"
       id="path4691" />
    <path
       d="m 8.6528395,9.4444634 c -0.021987,0 -0.046336,0 -0.067539,0.00312 -0.024343,0 -0.046336,0.00236 -0.067539,0.00548 -0.024343,0.00312 -0.046336,0.00628 -0.067538,0.00942 -0.021204,0.00312 -0.043191,0.00942 -0.064398,0.015708 -0.021204,0.00548 -0.040052,0.00864 -0.061256,0.018065 -0.018848,0.00628 -0.040052,0.012563 -0.058116,0.021204 -0.021987,0.00628 -0.040052,0.015709 -0.0589,0.025132 -0.018065,0.00864 -0.033767,0.018065 -0.051832,0.030628 -0.018065,0.00864 -0.036912,0.021204 -0.051832,0.030628 -0.018848,0.01178 -0.033767,0.024343 -0.049476,0.036913 -0.014919,0.01178 -0.030628,0.024343 -0.046336,0.039268 -0.014919,0.012563 -0.030628,0.025133 -0.045547,0.040052 -0.027488,0.030628 -0.052615,0.061256 -0.076962,0.095025 -0.024343,0.030628 -0.045547,0.064397 -0.064397,0.1013076 -0.01178,0.018848 -0.021204,0.036912 -0.030628,0.058116 -0.00942,0.018848 -0.014919,0.036912 -0.024343,0.058899 -0.015709,0.03927 -0.027489,0.07932 -0.036913,0.122512 -0.012563,0.04319 -0.018064,0.08874 -0.024343,0.131935 -0.00628,0.04555 -0.00628,0.09502 -0.00628,0.14136 0,0.03612 0,0.06989 0.00312,0.103663 0.00312,0.03377 0.00628,0.07068 0.01178,0.101308 0.00628,0.03377 0.012563,0.0644 0.021987,0.09817 0.00628,0.03063 0.014919,0.06126 0.027488,0.09188 0.00942,0.03141 0.021204,0.0589 0.036913,0.08639 0.01178,0.02749 0.027488,0.05497 0.043191,0.08246 0.014919,0.02513 0.030628,0.04948 0.048692,0.07382 0.018065,0.02434 0.036913,0.04948 0.058116,0.07068 0.018848,0.0212 0.040052,0.04319 0.061256,0.06126 0.025132,0.01807 0.046337,0.03691 0.07068,0.05497 0.024343,0.01571 0.052615,0.03377 0.076963,0.04634 0.027488,0.01492 0.054971,0.03063 0.08246,0.04319 0.030628,0.01178 0.061256,0.0212 0.092669,0.03063 0.027489,0.0086 0.061256,0.01806 0.091884,0.02434 0.033767,0.0031 0.067539,0.0094 0.1013076,0.01256 0.033767,0.0024 0.069895,0.0055 0.1036636,0.0055 0.040052,0 0.080104,-0.0031 0.1170144,-0.0055 0.036912,-0.0031 0.073821,-0.0094 0.1075905,-0.01571 0.033767,-0.0063 0.067538,-0.01571 0.098166,-0.02434 0.030628,-0.0094 0.061256,-0.01885 0.091884,-0.03377 0.027489,-0.01256 0.054971,-0.02434 0.08246,-0.04005 0.024343,-0.01807 0.052615,-0.03377 0.076963,-0.05183 0.024343,-0.02199 0.046336,-0.04005 0.067539,-0.06204 0.021204,-0.0212 0.043191,-0.04555 0.064397,-0.06989 L 9.1774221,10.944412 c -0.00942,-0.0094 -0.015709,-0.01571 -0.025132,-0.01885 -0.01178,-0.0055 -0.021204,-0.0055 -0.030628,-0.0055 -0.01178,0 -0.024343,0.0024 -0.033767,0.0055 -0.01178,0.0063 -0.021204,0.01256 -0.032984,0.02199 -0.012563,0.01178 -0.028272,0.02434 -0.040052,0.03377 -0.015708,0.01178 -0.030628,0.0212 -0.043191,0.03063 -0.015709,0.0086 -0.027489,0.01492 -0.043191,0.0212 -0.014919,0.0094 -0.030628,0.01571 -0.045547,0.01885 -0.015709,0.0055 -0.033767,0.01178 -0.049476,0.01492 -0.018065,0.0031 -0.036912,0.0063 -0.054971,0.0063 -0.033767,0.0063 -0.076963,0.0094 -0.1193704,0.0094 -0.021987,0 -0.040052,0 -0.0589,-0.0031 -0.018065,-0.0031 -0.036913,-0.0031 -0.054971,-0.0094 -0.018064,-0.0031 -0.033767,-0.0063 -0.051832,-0.01256 -0.018848,-0.0055 -0.033767,-0.01178 -0.052615,-0.01806 -0.014919,-0.0094 -0.033767,-0.01571 -0.048692,-0.02434 -0.015708,-0.0094 -0.027489,-0.01885 -0.043191,-0.03063 -0.014919,-0.0094 -0.030628,-0.02199 -0.043191,-0.03377 -0.014919,-0.01256 -0.027489,-0.02513 -0.039269,-0.04005 -0.012563,-0.01256 -0.025132,-0.02749 -0.033767,-0.04319 -0.012563,-0.01492 -0.021987,-0.03377 -0.033767,-0.04869 -0.00942,-0.01885 -0.018848,-0.03377 -0.028272,-0.05261 -0.00548,-0.01807 -0.014919,-0.04005 -0.021204,-0.06126 -0.00942,-0.01807 -0.014919,-0.04005 -0.018065,-0.06126 -0.00628,-0.0212 -0.012563,-0.04319 -0.015709,-0.06754 -0.00312,-0.0212 -0.00628,-0.04634 -0.00942,-0.07068 0,-0.02434 0,-0.04869 0,-0.07618 0,-0.02513 0,-0.04948 0,-0.07382 0.00312,-0.02434 0.00628,-0.04948 0.00942,-0.07382 0.00312,-0.0212 0.00942,-0.04319 0.012563,-0.0644 0.00628,-0.0212 0.01178,-0.04319 0.018065,-0.0644 0.00628,-0.01807 0.012563,-0.04005 0.021987,-0.05812 0.00548,-0.01885 0.014919,-0.03377 0.024343,-0.05262 0.00942,-0.01492 0.018065,-0.03377 0.030628,-0.048692 0.00942,-0.015709 0.021204,-0.027489 0.033767,-0.043191 0.012563,-0.01178 0.024343,-0.027489 0.040052,-0.040052 0.01178,-0.01178 0.024343,-0.021204 0.039268,-0.033767 0.015709,-0.00864 0.030628,-0.021204 0.046337,-0.030628 0.015709,-0.00864 0.030628,-0.014919 0.049476,-0.024343 0.014919,-0.00628 0.033767,-0.012563 0.051832,-0.018065 0.014919,-0.00628 0.033767,-0.00942 0.051832,-0.012563 0.018848,-0.00312 0.040052,-0.00628 0.0589,-0.00942 0.018065,-0.00312 0.039269,-0.00312 0.058116,-0.00312 0.036913,0 0.07068,0.00312 0.098166,0.00628 0.030628,0.00312 0.058116,0.00942 0.08246,0.018848 0.021987,0.00548 0.046337,0.014919 0.064398,0.021204 0.018848,0.00942 0.036912,0.018065 0.052615,0.027489 0.033767,0.018848 0.058116,0.033767 0.079318,0.049476 0.012563,0.00864 0.021987,0.014919 0.033767,0.018065 0.012563,0.00312 0.021987,0.00628 0.033767,0.00628 0.00942,0 0.018848,-0.00312 0.027489,-0.00312 0.00942,-0.00312 0.015709,-0.00628 0.021987,-0.00942 0.01178,-0.00864 0.021204,-0.021204 0.030628,-0.030628 L 9.3125052,9.6989511 c -0.018848,-0.018848 -0.040052,-0.036912 -0.061256,-0.054971 -0.021987,-0.015709 -0.043191,-0.031411 -0.067539,-0.046336 -0.021987,-0.018848 -0.046336,-0.033767 -0.07068,-0.046337 -0.025132,-0.01178 -0.052615,-0.024343 -0.080104,-0.036912 -0.027489,-0.01178 -0.054971,-0.021204 -0.085601,-0.030628 -0.030628,-0.00864 -0.058116,-0.014919 -0.091884,-0.021204 -0.030628,-0.00628 -0.064398,-0.00942 -0.098166,-0.012563 -0.033767,-0.00236 -0.067539,-0.00548 -0.1013076,-0.00548 z"
       style="fill:#ffffff;fill-opacity:1;fill-rule:nonzero;stroke:none;stroke-width:0.785328"
       id="path4693" />
    <path
       d="m 6.5300917,9.4444634 c -0.040052,0 -0.073821,0.00312 -0.1107315,0.00548 -0.033767,0.00312 -0.07068,0.00628 -0.1013076,0.012563 -0.033767,0.00628 -0.067539,0.015709 -0.1013076,0.024343 -0.030628,0.00942 -0.061256,0.021987 -0.091884,0.033767 -0.030628,0.012563 -0.061256,0.025132 -0.088743,0.040052 -0.027488,0.015709 -0.05576,0.030628 -0.080104,0.049476 -0.027489,0.014919 -0.051832,0.033767 -0.076177,0.054971 -0.021987,0.018064 -0.046337,0.040052 -0.067539,0.061256 -0.021987,0.021204 -0.043191,0.046336 -0.062041,0.067539 -0.018065,0.024343 -0.036123,0.048693 -0.054971,0.076963 -0.014919,0.024343 -0.030628,0.051832 -0.045547,0.079318 -0.015709,0.027489 -0.028272,0.058116 -0.040052,0.088742 -0.012563,0.02827 -0.021987,0.0589 -0.030628,0.09267 -0.00942,0.03063 -0.015709,0.06126 -0.021987,0.09502 -0.00548,0.03063 -0.01178,0.0644 -0.01178,0.09817 -0.00312,0.03377 -0.00628,0.07068 -0.00628,0.10445 0,0.03612 0.00312,0.06989 0.00628,0.103663 0,0.03377 0.00628,0.06754 0.01178,0.09817 0.00628,0.03377 0.012563,0.06754 0.021987,0.09817 0.00864,0.03063 0.018064,0.06126 0.030628,0.09267 0.01178,0.03063 0.024343,0.05812 0.040052,0.0856 0.014919,0.03063 0.030628,0.05497 0.045547,0.08246 0.018848,0.02513 0.036912,0.04948 0.054971,0.07382 0.018848,0.02434 0.040052,0.04634 0.062041,0.07068 0.021204,0.0212 0.045547,0.04005 0.067539,0.06126 0.024343,0.01885 0.048692,0.03691 0.076177,0.05497 0.024343,0.01885 0.052615,0.03377 0.080104,0.04948 0.027489,0.01256 0.058116,0.02749 0.088743,0.04005 0.030628,0.01178 0.061256,0.02434 0.091884,0.03377 0.033767,0.0086 0.067538,0.01492 0.1013076,0.0212 0.030628,0.0094 0.067538,0.01256 0.1013076,0.01571 0.036913,0.0024 0.07068,0.0024 0.1107315,0.0024 0.036913,0 0.069894,0 0.1068048,-0.0024 0.033767,-0.0031 0.07068,-0.0063 0.1044487,-0.01571 0.030628,-0.0063 0.064398,-0.01256 0.098167,-0.0212 0.030628,-0.0094 0.061256,-0.02199 0.091884,-0.03377 0.030628,-0.01256 0.0589,-0.02749 0.089528,-0.04005 0.027489,-0.01571 0.054971,-0.03063 0.079319,-0.04948 0.027489,-0.01807 0.052615,-0.03612 0.076962,-0.05497 0.021204,-0.0212 0.043191,-0.04005 0.064398,-0.06126 0.021204,-0.02434 0.043191,-0.04634 0.064397,-0.07068 0.018064,-0.02434 0.036912,-0.04869 0.051832,-0.07382 0.018848,-0.02749 0.033767,-0.05183 0.046336,-0.08246 0.014919,-0.02749 0.027488,-0.05497 0.040052,-0.0856 0.01178,-0.03141 0.021204,-0.06204 0.030628,-0.09267 0.00942,-0.03063 0.018065,-0.0644 0.024343,-0.09817 0.00628,-0.03063 0.00942,-0.0644 0.012563,-0.09817 0.00312,-0.03377 0.00312,-0.06754 0.00312,-0.103663 0,-0.03377 0,-0.07068 -0.00312,-0.10445 -0.00312,-0.03377 -0.00628,-0.0644 -0.012563,-0.09817 -0.00628,-0.03063 -0.014919,-0.0644 -0.024343,-0.09502 -0.00942,-0.03063 -0.018848,-0.06126 -0.030628,-0.09267 -0.012563,-0.03063 -0.025133,-0.058116 -0.040052,-0.085601 -0.012563,-0.027489 -0.027489,-0.054971 -0.046336,-0.08246 -0.014919,-0.025132 -0.033767,-0.049476 -0.051832,-0.073821 -0.021204,-0.024343 -0.043191,-0.046336 -0.064397,-0.07068 -0.021204,-0.021204 -0.043191,-0.043191 -0.064398,-0.061256 -0.024343,-0.021204 -0.049476,-0.040052 -0.076962,-0.054971 -0.024343,-0.018848 -0.051832,-0.033767 -0.079319,-0.049476 -0.030628,-0.014919 -0.0589,-0.027489 -0.089528,-0.040052 -0.030628,-0.01178 -0.061256,-0.024343 -0.091884,-0.033767 -0.033767,-0.00864 -0.067539,-0.018064 -0.098167,-0.024343 -0.033767,-0.00628 -0.07068,-0.00942 -0.1044487,-0.012563 -0.036912,-0.00236 -0.069895,-0.00548 -0.1068048,-0.00548 z m 0,0.333765 c 0.021204,0 0.042408,0 0.064397,0.00312 0.021204,0.00312 0.042408,0.00628 0.061256,0.00942 0.021204,0.00312 0.040052,0.00942 0.058116,0.015709 0.018065,0.00236 0.036912,0.00864 0.054971,0.018065 0.018848,0.00628 0.036912,0.015709 0.052615,0.024343 0.018065,0.00942 0.033767,0.018848 0.048692,0.030628 0.015708,0.00942 0.027489,0.021987 0.043191,0.033767 0.012563,0.012563 0.024343,0.025132 0.036913,0.040052 0.014919,0.012563 0.024343,0.027489 0.036912,0.046336 0.01178,0.014919 0.021204,0.030628 0.030628,0.045547 0.00864,0.01885 0.021204,0.03691 0.027489,0.05576 0.00942,0.01807 0.014919,0.03612 0.021204,0.05812 0.00942,0.01806 0.012563,0.04005 0.018848,0.06126 0.00628,0.0212 0.00864,0.04319 0.01178,0.0644 0.00312,0.02434 0.00628,0.04634 0.00628,0.07068 0.00312,0.02434 0.00312,0.04869 0.00312,0.07382 0,0.02434 0,0.05183 -0.00312,0.07618 0,0.02199 -0.00312,0.04634 -0.00628,0.06754 -0.00312,0.02434 -0.00548,0.04634 -0.01178,0.06754 -0.00628,0.0212 -0.00942,0.04319 -0.018848,0.06126 -0.00628,0.02199 -0.01178,0.04005 -0.021204,0.05812 -0.00628,0.01885 -0.018848,0.03691 -0.027489,0.05262 -0.00942,0.01806 -0.018848,0.03377 -0.030628,0.04869 -0.012563,0.01571 -0.021987,0.03063 -0.036912,0.04634 -0.012563,0.01256 -0.024343,0.02434 -0.036913,0.04005 -0.015709,0.01178 -0.027489,0.0212 -0.043191,0.03377 -0.014919,0.0086 -0.030628,0.0212 -0.048692,0.03063 -0.015709,0.0063 -0.033767,0.01492 -0.052615,0.02434 -0.018065,0.0063 -0.036912,0.01256 -0.054971,0.01806 -0.018065,0.0063 -0.036912,0.0094 -0.058116,0.01256 -0.018848,0.0031 -0.040052,0.0063 -0.061256,0.0094 -0.021987,0 -0.043191,0.0031 -0.064397,0.0031 -0.025132,0 -0.046336,-0.0031 -0.067539,-0.0031 -0.021987,-0.0031 -0.043191,-0.0063 -0.061256,-0.0094 -0.021987,-0.0031 -0.040052,-0.0063 -0.062041,-0.01256 -0.018065,-0.0055 -0.036123,-0.01178 -0.054971,-0.01806 -0.014919,-0.0094 -0.033767,-0.01807 -0.051832,-0.02434 -0.015708,-0.0094 -0.030628,-0.02199 -0.046336,-0.03063 -0.014919,-0.01256 -0.030628,-0.02199 -0.043191,-0.03377 -0.014919,-0.01571 -0.030628,-0.02749 -0.042408,-0.04005 -0.012563,-0.01571 -0.021987,-0.03063 -0.033767,-0.04634 -0.00942,-0.01492 -0.021987,-0.03063 -0.030628,-0.04869 -0.00942,-0.01571 -0.018848,-0.03377 -0.027488,-0.05262 -0.00628,-0.01806 -0.015709,-0.03612 -0.021987,-0.05812 -0.00628,-0.01807 -0.01178,-0.04005 -0.014919,-0.06126 -0.00628,-0.0212 -0.00942,-0.04319 -0.012563,-0.06754 -0.00628,-0.0212 -0.00942,-0.04555 -0.00942,-0.06754 -0.00312,-0.02434 -0.00312,-0.05183 -0.00312,-0.07618 0,-0.02513 0,-0.04948 0.00312,-0.07382 0,-0.02434 0.00312,-0.04634 0.00942,-0.07068 0.00312,-0.0212 0.00628,-0.04319 0.012563,-0.0644 0.00312,-0.0212 0.00864,-0.04319 0.014919,-0.06126 0.00628,-0.02199 0.015709,-0.04005 0.021987,-0.05812 0.00864,-0.01885 0.018065,-0.03691 0.027488,-0.05576 0.00864,-0.01492 0.021204,-0.03063 0.030628,-0.045547 0.01178,-0.018848 0.021204,-0.033767 0.033767,-0.046336 0.01178,-0.014919 0.027489,-0.027489 0.042408,-0.040052 0.012563,-0.01178 0.028272,-0.024343 0.043191,-0.033767 0.015709,-0.01178 0.030628,-0.021204 0.046336,-0.030628 0.018065,-0.00864 0.036912,-0.018065 0.051832,-0.024343 0.018848,-0.00942 0.036913,-0.015709 0.054971,-0.018065 0.021987,-0.00628 0.040052,-0.012563 0.062041,-0.015709 0.018065,-0.00312 0.039269,-0.00628 0.061256,-0.00942 0.021204,-0.00312 0.042408,-0.00312 0.067539,-0.00312 z"
       style="fill:#ffffff;fill-opacity:1;fill-rule:nonzero;stroke:none;stroke-width:0.785328"
       id="path4695" />
    <path
       d="m 6.9565261,8.2295573 c -1.2180473,0 -2.1997104,0.981663 -2.1997104,2.1997107 0,1.220402 0.9816631,2.202065 2.1997104,2.202065 h 2.7235254 c 1.2180475,0 2.1997095,-0.981663 2.1997095,-2.202065 0,-1.2180477 -0.981662,-2.1997107 -2.1997095,-2.1997107 z M 6.5300917,9.4444634 c 0.036913,0 0.069894,0.00312 0.1068048,0.00548 0.033767,0.00312 0.07068,0.00628 0.1044487,0.012563 0.030628,0.00628 0.064398,0.015709 0.098167,0.024343 0.030628,0.00942 0.061256,0.021987 0.091884,0.033767 0.030628,0.012563 0.0589,0.025132 0.089528,0.040052 0.027489,0.015709 0.054971,0.030628 0.079319,0.049476 0.027489,0.014919 0.052615,0.033767 0.076962,0.054971 0.021204,0.018064 0.043191,0.040052 0.064398,0.061256 0.021204,0.024343 0.043191,0.046336 0.064397,0.07068 0.018064,0.024343 0.036912,0.048692 0.051832,0.073821 0.018848,0.027489 0.033767,0.054971 0.046336,0.08246 0.014919,0.027488 0.027488,0.054972 0.040052,0.085601 0.01178,0.03141 0.021204,0.06204 0.030628,0.09267 0.00942,0.03063 0.018065,0.0644 0.024343,0.09502 0.00628,0.03377 0.00942,0.0644 0.012563,0.09817 0.00312,0.03377 0.00312,0.07068 0.00312,0.10445 0,0.03612 0,0.06989 -0.00312,0.103663 -0.00312,0.03377 -0.00628,0.06754 -0.012563,0.09817 -0.00628,0.03377 -0.014919,0.06754 -0.024343,0.09817 -0.00942,0.03063 -0.018848,0.06126 -0.030628,0.09267 -0.012563,0.03063 -0.025133,0.05812 -0.040052,0.0856 -0.012563,0.03063 -0.027489,0.05497 -0.046336,0.08246 -0.014919,0.02513 -0.033767,0.04948 -0.051832,0.07382 -0.021204,0.02434 -0.043191,0.04634 -0.064397,0.07068 -0.021204,0.0212 -0.043191,0.04005 -0.064398,0.06126 -0.024343,0.01885 -0.049476,0.03691 -0.076962,0.05497 -0.024343,0.01885 -0.051832,0.03377 -0.079319,0.04948 -0.030628,0.01256 -0.0589,0.02749 -0.089528,0.04005 -0.030628,0.01178 -0.061256,0.02434 -0.091884,0.03377 -0.033767,0.0086 -0.067539,0.01492 -0.098167,0.0212 -0.033767,0.0094 -0.07068,0.01256 -0.1044487,0.01571 -0.036912,0.0024 -0.069895,0.0024 -0.1068048,0.0024 -0.040052,0 -0.073821,0 -0.1107315,-0.0024 -0.033767,-0.0031 -0.07068,-0.0063 -0.1013076,-0.01571 -0.033767,-0.0063 -0.067539,-0.01256 -0.1013076,-0.0212 -0.030628,-0.0094 -0.061256,-0.02199 -0.091884,-0.03377 C 6.094233,11.327676 6.063605,11.312746 6.036118,11.300186 6.00863,11.284476 5.980358,11.269556 5.956014,11.250706 5.928525,11.232636 5.904182,11.214586 5.879837,11.195736 5.85785,11.174536 5.8335,11.155686 5.812298,11.134476 5.790311,11.110136 5.769107,11.088136 5.750257,11.063796 5.732192,11.039456 5.714134,11.015106 5.695286,10.989976 5.680367,10.962486 5.664658,10.938146 5.649739,10.910656 5.63403,10.880026 5.621467,10.852536 5.609687,10.821916 5.597124,10.790506 5.5877,10.759876 5.579059,10.729246 c -0.00942,-0.03063 -0.015709,-0.0644 -0.021987,-0.09503 -0.00548,-0.03377 -0.01178,-0.06754 -0.01178,-0.101307 -0.00312,-0.03377 -0.00628,-0.06754 -0.00628,-0.103663 0,-0.03377 0.00312,-0.07068 0.00628,-0.10445 0,-0.03377 0.00628,-0.06754 0.01178,-0.09817 0.00628,-0.03377 0.012563,-0.0644 0.021987,-0.09502 0.00864,-0.03377 0.018064,-0.0644 0.030628,-0.09267 C 5.621467,10.008306 5.63403,9.97768 5.649739,9.950194 5.664658,9.922705 5.680367,9.895223 5.695286,9.870876 5.714134,9.842604 5.732198,9.818261 5.750257,9.797055 5.769105,9.772712 5.790309,9.747579 5.812298,9.726375 5.833502,9.705171 5.857845,9.683184 5.879837,9.665119 5.90418,9.643915 5.928529,9.625067 5.956014,9.610148 5.980357,9.5913 6.008629,9.576381 6.036118,9.560672 6.063607,9.545753 6.094234,9.533183 6.124861,9.52062 6.155489,9.50884 6.186117,9.496277 6.216745,9.486853 6.250512,9.478213 6.284283,9.468789 6.3180526,9.46251 6.3486806,9.45623 6.3855906,9.45309 6.4193602,9.449947 c 0.036913,-0.00236 0.07068,-0.00548 0.1107315,-0.00548 z m 2.1227478,0 c 0.036912,0 0.07068,0.00312 0.1044488,0.00548 0.033767,0.00312 0.067539,0.00628 0.098166,0.012563 0.033767,0.00628 0.061256,0.012563 0.091884,0.021204 0.030628,0.00942 0.058116,0.018848 0.085601,0.030628 0.027489,0.012563 0.054971,0.025133 0.080104,0.036912 0.024343,0.012563 0.048692,0.027489 0.07068,0.046336 0.024343,0.014919 0.045547,0.030628 0.067539,0.046336 0.021204,0.018065 0.042408,0.036123 0.061256,0.054971 L 9.1774398,9.8826601 c -0.00942,0.00942 -0.018848,0.021987 -0.030628,0.030628 -0.00628,0.00312 -0.012563,0.00628 -0.021987,0.00942 -0.00864,0 -0.018065,0.00312 -0.030628,0.00312 -0.00864,0 -0.018064,-0.00312 -0.030628,-0.00628 -0.01178,-0.00312 -0.021204,-0.00942 -0.033767,-0.018065 -0.021204,-0.015708 -0.045547,-0.030628 -0.079319,-0.049476 -0.015709,-0.00942 -0.033767,-0.018064 -0.052615,-0.027488 -0.018065,-0.00628 -0.042408,-0.015709 -0.064398,-0.021204 -0.024343,-0.00942 -0.051832,-0.015709 -0.08246,-0.018848 -0.027489,-0.00312 -0.061256,-0.00628 -0.098166,-0.00628 -0.018848,0 -0.040052,0 -0.058116,0.00312 -0.018848,0.00312 -0.040052,0.00628 -0.0589,0.00942 -0.018064,0.00312 -0.036912,0.00628 -0.051832,0.012563 -0.018064,0.00548 -0.036912,0.01178 -0.051832,0.018065 -0.018848,0.00942 -0.033767,0.015709 -0.049476,0.024343 -0.015709,0.00942 -0.030628,0.021987 -0.046336,0.030628 -0.014919,0.012563 -0.027489,0.021987 -0.042408,0.033767 -0.012563,0.012563 -0.024343,0.028272 -0.036913,0.040052 -0.012563,0.015709 -0.024343,0.027489 -0.033767,0.043191 -0.012563,0.014919 -0.021204,0.033767 -0.030628,0.048692 -0.00942,0.01885 -0.018848,0.03377 -0.024343,0.05261 -0.00942,0.01807 -0.015709,0.04005 -0.021987,0.05812 -0.00628,0.0212 -0.01178,0.04319 -0.018065,0.0644 -0.00628,0.0212 -0.00942,0.04319 -0.012563,0.0644 -0.00312,0.02434 -0.00628,0.04948 -0.00942,0.07382 0,0.02434 0,0.04869 0,0.07382 0,0.02749 0,0.05183 0,0.07618 0.00312,0.02434 0.00628,0.04948 0.00942,0.07068 0.00312,0.02434 0.00942,0.04634 0.015709,0.06754 0.00312,0.0212 0.00864,0.04319 0.018064,0.06126 0.00628,0.0212 0.015709,0.04319 0.021204,0.06125 0.00942,0.01885 0.018848,0.03377 0.028272,0.05262 0.01178,0.01492 0.021204,0.03377 0.030628,0.04869 0.01178,0.01571 0.024343,0.03063 0.036912,0.04319 0.01178,0.01492 0.024343,0.02749 0.039269,0.04005 0.012563,0.01178 0.028272,0.02434 0.043191,0.03377 0.015709,0.01178 0.027489,0.0212 0.043191,0.03063 0.014919,0.0086 0.033767,0.01492 0.048692,0.02434 0.018848,0.0063 0.033767,0.01256 0.052615,0.01807 0.018065,0.0063 0.033767,0.0094 0.051832,0.01256 0.018065,0.0063 0.036913,0.0063 0.054971,0.0094 0.018848,0.0031 0.036912,0.0031 0.0589,0.0031 0.042408,0 0.085601,-0.0031 0.1193704,-0.0094 0.018065,0 0.036912,-0.0031 0.054971,-0.0063 0.015709,-0.0031 0.033767,-0.0094 0.049476,-0.01492 0.014919,-0.0031 0.030628,-0.0094 0.045547,-0.01885 0.015709,-0.0063 0.027488,-0.01256 0.043191,-0.0212 0.012563,-0.0094 0.027489,-0.01885 0.040052,-0.03063 0.014919,-0.0094 0.030628,-0.02199 0.043191,-0.03377 0.01178,-0.0094 0.021204,-0.01571 0.030628,-0.02199 0.01178,-0.0031 0.024343,-0.0055 0.036123,-0.0055 0.00942,0 0.018848,0 0.028272,0.0055 0.01178,0.0031 0.018065,0.0094 0.027489,0.01885 L 9.3337209,11.1132 c -0.018065,0.02434 -0.040052,0.04869 -0.061256,0.06989 -0.021204,0.02199 -0.043191,0.04005 -0.067539,0.06204 -0.024343,0.01807 -0.052615,0.03377 -0.076962,0.04869 -0.027489,0.01885 -0.054971,0.03063 -0.08246,0.04319 -0.030628,0.01492 -0.061256,0.02434 -0.091884,0.03377 -0.030628,0.0086 -0.064397,0.01807 -0.098166,0.02434 -0.033767,0.0063 -0.07068,0.01256 -0.1075904,0.01571 -0.036912,0.0024 -0.076963,0.0024 -0.1170144,0.0024 -0.033767,0 -0.069894,0 -0.1036636,-0.0024 -0.033767,-0.0031 -0.067538,-0.0094 -0.1013076,-0.01571 -0.030628,-0.0031 -0.064397,-0.01256 -0.095025,-0.0212 -0.028272,-0.0094 -0.0589,-0.01885 -0.089528,-0.03063 -0.027489,-0.01256 -0.054971,-0.02827 -0.08246,-0.04319 -0.024343,-0.01256 -0.052615,-0.03063 -0.076963,-0.04634 -0.024343,-0.01806 -0.045547,-0.03691 -0.07068,-0.05497 -0.021204,-0.01807 -0.042408,-0.04005 -0.061256,-0.06126 -0.021204,-0.0212 -0.040052,-0.04634 -0.058116,-0.07068 -0.018065,-0.02434 -0.033767,-0.04869 -0.048692,-0.07696 -0.015709,-0.02434 -0.031411,-0.05183 -0.046336,-0.07932 -0.012563,-0.02749 -0.024343,-0.05497 -0.033767,-0.08639 -0.012563,-0.03063 -0.021204,-0.06126 -0.030628,-0.09188 -0.00628,-0.03377 -0.012563,-0.0644 -0.018848,-0.09817 -0.00548,-0.03063 -0.00864,-0.06754 -0.01178,-0.101307 -0.00312,-0.03377 -0.00312,-0.06754 -0.00312,-0.103663 0,-0.04634 0,-0.09581 0.00628,-0.14136 0.00628,-0.04319 0.01178,-0.08874 0.024343,-0.131935 0.00942,-0.04319 0.021204,-0.08325 0.036913,-0.122512 0.00942,-0.02199 0.014919,-0.040052 0.024343,-0.0589 0.00942,-0.021204 0.018848,-0.039269 0.030628,-0.058116 0.018848,-0.036912 0.040052,-0.07068 0.064397,-0.1044487 0.024343,-0.030628 0.049476,-0.061256 0.076963,-0.091884 0.014919,-0.014919 0.030628,-0.027488 0.045547,-0.040052 0.015709,-0.014919 0.031411,-0.027489 0.046337,-0.039269 0.015709,-0.012563 0.030628,-0.025132 0.049476,-0.036912 0.014919,-0.00942 0.033767,-0.021987 0.051832,-0.030628 0.018064,-0.012563 0.033767,-0.021987 0.051832,-0.030628 0.018848,-0.00942 0.036912,-0.018848 0.0589,-0.025133 0.018065,-0.00864 0.039269,-0.014919 0.058116,-0.021204 0.021204,-0.00942 0.040052,-0.012563 0.061256,-0.018065 0.021204,-0.00628 0.043191,-0.012563 0.064398,-0.015709 0.021204,-0.00312 0.043191,-0.00628 0.064397,-0.00942 0.024343,-0.00312 0.046336,-0.00548 0.07068,-0.00548 0.021204,-0.00312 0.045547,-0.00312 0.067539,-0.00312 z m 0.9078416,0.021204 h 0.6047049 c 0.03377,0 0.06754,0 0.09817,0.00312 0.03063,0.00312 0.06125,0.00312 0.08874,0.00942 0.03063,0.00312 0.05812,0.00548 0.08246,0.01178 0.02749,0.00312 0.05261,0.00942 0.07696,0.018848 0.02434,0.00548 0.04634,0.014919 0.06754,0.021204 0.0212,0.00942 0.04319,0.018065 0.06126,0.027488 0.0212,0.00942 0.04005,0.018848 0.05497,0.030628 0.01885,0.012563 0.03691,0.024343 0.05262,0.036912 0.01492,0.012563 0.02749,0.024343 0.04005,0.036912 0.01492,0.015709 0.02749,0.027489 0.03612,0.043191 0.01256,0.014919 0.02199,0.030628 0.03063,0.045547 0.0094,0.015709 0.01885,0.033767 0.02513,0.052615 0.0063,0.014919 0.01178,0.033767 0.01806,0.051832 0.0063,0.015709 0.0094,0.033767 0.01571,0.054971 0.0031,0.018848 0.0055,0.036912 0.0055,0.05576 0.0031,0.021204 0.0031,0.042408 0.0031,0.061256 0,0.03377 -0.0031,0.0644 -0.0055,0.09503 -0.0063,0.03063 -0.01256,0.05812 -0.02199,0.08874 -0.0086,0.02749 -0.0212,0.05576 -0.03377,0.0801 -0.01178,0.02749 -0.02749,0.04869 -0.04555,0.07304 -0.01571,0.02513 -0.03377,0.04634 -0.05576,0.06754 -0.0212,0.02199 -0.04555,0.04005 -0.06989,0.0589 -0.02513,0.01807 -0.05262,0.03377 -0.08324,0.04869 -0.02749,0.01571 -0.05812,0.02749 -0.08874,0.04005 0.01178,0.0063 0.02434,0.01492 0.03691,0.0212 0.01178,0.0094 0.0212,0.01885 0.03377,0.02749 0.0086,0.01256 0.0212,0.02199 0.03063,0.03377 0.01178,0.01256 0.01807,0.02513 0.02749,0.04005 l 0.450779,0.693446 h -0.358896 c -0.01806,0 -0.03377,-0.0031 -0.04869,-0.0063 -0.01256,-0.0031 -0.02827,-0.0094 -0.04005,-0.01492 -0.01256,-0.0063 -0.02434,-0.01256 -0.03377,-0.02199 -0.0094,-0.01178 -0.01885,-0.0212 -0.02434,-0.03377 l -0.368321,-0.59214 c -0.0063,-0.01178 -0.01571,-0.0212 -0.02434,-0.03063 -0.0063,-0.0086 -0.01571,-0.01492 -0.02513,-0.0212 -0.0086,-0.0031 -0.0212,-0.0094 -0.03377,-0.01256 -0.01178,-0.0024 -0.03063,-0.0024 -0.04555,-0.0024 H 9.9596199 v 0.735855 H 9.5606723 Z"
       style="fill:#3e3373;fill-opacity:1;fill-rule:nonzero;stroke:none;stroke-width:0.785328"
       id="path4697" />
  </g>
</svg>
